<?xml version="1.0" standalone="no"?>
<!DOCTYPE svg PUBLIC "-//W3C//DTD SVG 20010904//EN"
 "http://www.w3.org/TR/2001/REC-SVG-20010904/DTD/svg10.dtd">
<svg version="1.0" xmlns="http://www.w3.org/2000/svg"
 width="602.000000pt" height="602.000000pt" viewBox="0 0 602.000000 602.000000"
 preserveAspectRatio="xMidYMid meet">
<metadata>
Created by potrace 1.14, written by Peter Selinger 2001-2017
</metadata>
<g transform="translate(0.000000,602.000000) scale(0.100000,-0.100000)"
fill="#000000" stroke="none">
<path d="M1325 6000 c-22 -4 -58 -10 -80 -14 -22 -3 -49 -8 -60 -10 -11 -3
-39 -10 -61 -15 -139 -34 -312 -114 -456 -210 -97 -65 -262 -215 -331 -301
-57 -71 -138 -202 -176 -282 -59 -125 -67 -147 -89 -223 -18 -63 -24 -87 -38
-150 -5 -20 -9 -52 -21 -150 -8 -71 -8 -3185 1 -3270 6 -65 9 -85 20 -147 85
-461 410 -877 841 -1078 81 -37 261 -98 314 -106 20 -3 42 -7 49 -9 7 -3 40
-8 75 -12 74 -9 3351 -10 3387 -1 14 3 48 10 75 14 219 33 478 150 665 301
212 172 363 377 464 631 21 51 39 100 41 110 2 9 10 44 18 77 19 72 28 126 32
181 1 23 5 46 7 50 8 14 2 3265 -6 3309 -12 67 -27 149 -32 175 -3 13 -15 54
-27 90 -12 36 -22 67 -22 70 -1 3 -7 18 -14 35 -89 216 -230 416 -394 560 -38
33 -74 65 -80 70 -61 54 -335 209 -388 219 -8 2 -26 8 -40 14 -26 11 -98 31
-132 38 -10 2 -26 5 -35 8 -9 3 -34 8 -56 12 -21 3 -48 9 -60 12 -30 10 -3343
11 -3391 2z"/>
</g>
</svg>
