<?xml version="1.0" encoding="UTF-8" standalone="no"?><!DOCTYPE svg PUBLIC "-//W3C//DTD SVG 1.1//EN" "http://www.w3.org/Graphics/SVG/1.1/DTD/svg11.dtd"><svg width="100%" height="100%" viewBox="0 0 882 300" version="1.1" xmlns="http://www.w3.org/2000/svg" xmlns:xlink="http://www.w3.org/1999/xlink" xml:space="preserve" xmlns:serif="http://www.serif.com/" style="fill-rule:evenodd;clip-rule:evenodd;stroke-linejoin:round;stroke-miterlimit:2;"><rect id="ti-logo-full-black" x="0.359" y="0" width="881.5" height="300" style="fill:none;"/><clipPath id="_clip1"><rect x="0.359" y="0" width="881.5" height="300"/></clipPath><g clip-path="url(#_clip1)"><g><path d="M336.597,54.264c0,0.662 -0.232,1.225 -0.696,1.689c-0.464,0.464 -1.027,0.696 -1.689,0.696l-11.132,0c-0.663,0 -0.994,0.331 -0.994,0.994l-0,47.31c-0,3.843 0.729,6.494 2.187,7.952c1.457,1.457 3.644,2.12 6.559,1.987l1.392,0c0.662,0 1.226,0.232 1.689,0.696c0.464,0.464 0.696,1.027 0.696,1.69l0,19.481c0,0.662 -0.232,1.225 -0.696,1.689c-0.463,0.464 -1.027,0.696 -1.689,0.696l-7.951,-0c-9.675,-0 -16.963,-1.623 -21.867,-4.87c-4.903,-3.247 -7.355,-9.442 -7.355,-18.586l0,-58.045c0,-0.663 -0.331,-0.994 -0.993,-0.994l-6.56,0c-0.663,0 -1.226,-0.232 -1.69,-0.696c-0.464,-0.464 -0.696,-1.027 -0.696,-1.689l0,-14.909c0,-0.663 0.232,-1.226 0.696,-1.69c0.464,-0.464 1.027,-0.695 1.69,-0.695l6.56,-0c0.662,-0 0.993,-0.332 0.993,-0.994l0,-22.065c0,-0.663 0.232,-1.226 0.696,-1.69c0.464,-0.464 1.027,-0.696 1.69,-0.696l22.264,0c0.662,0 1.225,0.232 1.689,0.696c0.464,0.464 0.696,1.027 0.696,1.69l-0,22.065c-0,0.662 0.331,0.994 0.994,0.994l11.132,-0c0.662,-0 1.225,0.231 1.689,0.695c0.464,0.464 0.696,1.027 0.696,1.69l0,14.909Z" style="fill:#2e2d33;fill-rule:nonzero;"/><path d="M393.648,35.777c3.578,-0 6.361,0.662 8.349,1.988c1.06,0.662 1.457,1.656 1.192,2.981l-3.777,23.258c-0.132,1.458 -1.06,1.988 -2.782,1.59c-1.458,-0.53 -3.247,-0.795 -5.368,-0.795c-1.987,0 -3.71,0.265 -5.168,0.795c-3.048,0.53 -5.5,2.353 -7.355,5.467c-1.855,3.114 -2.783,6.725 -2.783,10.833l0,54.666c0,0.662 -0.232,1.226 -0.696,1.689c-0.463,0.464 -1.027,0.696 -1.689,0.696l-23.258,0c-0.663,0 -1.226,-0.232 -1.69,-0.696c-0.463,-0.463 -0.695,-1.027 -0.695,-1.689l-0,-97.205c-0,-0.663 0.232,-1.226 0.695,-1.69c0.464,-0.464 1.027,-0.695 1.69,-0.695l23.258,-0c0.662,-0 1.226,0.231 1.689,0.695c0.464,0.464 0.696,1.027 0.696,1.69l0,7.752c0,0.531 0.099,0.829 0.298,0.895c0.199,0.066 0.431,-0.099 0.696,-0.497c3.578,-7.819 9.144,-11.728 16.698,-11.728Z" style="fill:#2e2d33;fill-rule:nonzero;"/><path d="M448.313,35.379c11.264,0 20.408,3.048 27.432,9.144c7.024,6.096 10.536,14.114 10.536,24.053l-0,68.183c-0,0.662 -0.232,1.225 -0.696,1.689c-0.464,0.464 -1.027,0.696 -1.69,0.696l-23.257,-0c-0.663,-0 -1.226,-0.232 -1.69,-0.696c-0.464,-0.464 -0.696,-1.027 -0.696,-1.689l0,-4.374c0,-0.397 -0.132,-0.662 -0.397,-0.795c-0.265,-0.132 -0.53,0 -0.795,0.398c-4.374,5.566 -11.132,8.481 -20.276,8.746c-7.687,0 -14.346,-2.12 -19.978,-6.361c-5.632,-4.241 -8.448,-12.324 -8.448,-24.251c-0,-12.325 3.412,-20.806 10.237,-25.445c6.825,-4.638 16.665,-6.957 29.519,-6.957l9.144,0c0.663,0 0.994,-0.331 0.994,-0.994l0,-4.969c0,-3.579 -0.961,-6.527 -2.882,-8.846c-1.922,-2.319 -4.34,-3.479 -7.256,-3.479c-2.253,-0 -4.141,0.696 -5.665,2.087c-1.524,1.392 -2.485,3.346 -2.882,5.864c-0.133,1.591 -0.994,2.386 -2.585,2.386l-23.854,-0.199c-1.59,-0 -2.385,-0.795 -2.385,-2.385c0.663,-9.675 4.44,-17.394 11.331,-23.159c6.891,-5.764 15.637,-8.647 26.239,-8.647Zm-1.988,83.688c3.048,-0 5.798,-1.027 8.25,-3.081c2.451,-2.054 3.677,-4.804 3.677,-8.25l0,-9.343c0,-0.662 -0.331,-0.993 -0.994,-0.993l-8.15,-0c-3.578,-0 -6.46,1.027 -8.647,3.081c-2.186,2.054 -3.28,4.87 -3.28,8.448c0,3.313 0.828,5.831 2.485,7.554c1.657,1.722 3.876,2.584 6.659,2.584Z" style="fill:#2e2d33;fill-rule:nonzero;"/><path d="M547.108,35.379c9.012,0 15.87,2.883 20.574,8.647c4.705,5.765 7.057,14.014 7.057,24.749l0,38.564c0,10.469 -2.319,18.652 -6.957,24.549c-4.639,5.898 -11.53,8.846 -20.674,8.846c-7.421,0 -13.385,-2.518 -17.89,-7.554c-0.265,-0.265 -0.53,-0.364 -0.795,-0.298c-0.265,0.067 -0.398,0.298 -0.398,0.696l0,3.181c0,0.662 -0.232,1.225 -0.696,1.689c-0.464,0.464 -1.027,0.696 -1.689,0.696l-23.258,-0c-0.663,-0 -1.226,-0.232 -1.69,-0.696c-0.463,-0.464 -0.695,-1.027 -0.695,-1.689l-0,-134.378c-0,-0.662 0.232,-1.226 0.695,-1.689c0.464,-0.464 1.027,-0.696 1.69,-0.696l23.258,-0c0.662,-0 1.225,0.232 1.689,0.696c0.464,0.463 0.696,1.027 0.696,1.689l0,40.353c0,0.265 0.133,0.398 0.398,0.398c0.53,-0 1.06,-0.332 1.59,-0.994c4.506,-4.506 10.204,-6.759 17.095,-6.759Zm-0.397,35.384c-0,-3.313 -0.862,-6.03 -2.585,-8.15c-1.722,-2.121 -3.975,-3.181 -6.758,-3.181c-2.386,-0 -4.44,0.795 -6.162,2.385c-1.723,1.591 -2.783,3.711 -3.181,6.361l0,39.757c0.398,2.65 1.458,4.771 3.181,6.361c1.722,1.59 3.776,2.385 6.162,2.385c2.783,0 5.036,-1.06 6.758,-3.18c1.723,-2.12 2.585,-4.837 2.585,-8.15l-0,-34.588Z" style="fill:#2e2d33;fill-rule:nonzero;"/><path d="M625.429,35.379c11.264,0 20.408,3.048 27.432,9.144c7.023,6.096 10.535,14.114 10.535,24.053l0,68.183c0,0.662 -0.232,1.225 -0.696,1.689c-0.463,0.464 -1.027,0.696 -1.689,0.696l-23.258,-0c-0.662,-0 -1.226,-0.232 -1.689,-0.696c-0.464,-0.464 -0.696,-1.027 -0.696,-1.689l-0,-4.374c-0,-0.397 -0.133,-0.662 -0.398,-0.795c-0.265,-0.132 -0.53,0 -0.795,0.398c-4.373,5.566 -11.132,8.481 -20.276,8.746c-7.686,0 -14.345,-2.12 -19.977,-6.361c-5.633,-4.241 -8.449,-12.324 -8.449,-24.251c0,-12.325 3.413,-20.806 10.238,-25.445c6.824,-4.638 16.664,-6.957 29.519,-6.957l9.144,0c0.663,0 0.994,-0.331 0.994,-0.994l-0,-4.969c-0,-3.579 -0.961,-6.527 -2.883,-8.846c-1.921,-2.319 -4.34,-3.479 -7.255,-3.479c-2.253,-0 -4.141,0.696 -5.665,2.087c-1.524,1.392 -2.485,3.346 -2.883,5.864c-0.132,1.591 -0.994,2.386 -2.584,2.386l-23.854,-0.199c-1.59,-0 -2.385,-0.795 -2.385,-2.385c0.662,-9.675 4.439,-17.394 11.33,-23.159c6.891,-5.764 15.638,-8.647 26.24,-8.647Zm-1.988,83.688c3.048,-0 5.798,-1.027 8.249,-3.081c2.452,-2.054 3.678,-4.804 3.678,-8.25l-0,-9.343c-0,-0.662 -0.331,-0.993 -0.994,-0.993l-8.15,-0c-3.578,-0 -6.461,1.027 -8.647,3.081c-2.187,2.054 -3.28,4.87 -3.28,8.448c-0,3.313 0.828,5.831 2.485,7.554c1.656,1.722 3.876,2.584 6.659,2.584Z" style="fill:#2e2d33;fill-rule:nonzero;"/><path d="M678.702,139.144c-0.662,-0 -1.225,-0.232 -1.689,-0.696c-0.464,-0.464 -0.696,-1.027 -0.696,-1.689l0,-134.378c0,-0.662 0.232,-1.226 0.696,-1.689c0.464,-0.464 1.027,-0.696 1.689,-0.696l23.258,-0c0.663,-0 1.226,0.232 1.69,0.696c0.464,0.463 0.695,1.027 0.695,1.689l0,134.378c0,0.662 -0.231,1.225 -0.695,1.689c-0.464,0.464 -1.027,0.696 -1.69,0.696l-23.258,-0Z" style="fill:#2e2d33;fill-rule:nonzero;"/><path d="M766.167,35.379c9.011,0 15.77,2.982 20.276,8.945c4.506,5.964 6.758,14.313 6.758,25.047l0,67.388c0,0.662 -0.231,1.225 -0.695,1.689c-0.464,0.464 -1.027,0.696 -1.69,0.696l-23.258,-0c-0.662,-0 -1.225,-0.232 -1.689,-0.696c-0.464,-0.464 -0.696,-1.027 -0.696,-1.689l0,-65.201c0,-3.843 -0.762,-6.825 -2.286,-8.945c-1.524,-2.121 -3.744,-3.181 -6.659,-3.181c-3.048,-0 -5.4,1.093 -7.057,3.28c-1.656,2.187 -2.485,5.268 -2.485,9.243l0,64.804c0,0.662 -0.232,1.225 -0.695,1.689c-0.464,0.464 -1.028,0.696 -1.69,0.696l-23.258,-0c-0.662,-0 -1.226,-0.232 -1.689,-0.696c-0.464,-0.464 -0.696,-1.027 -0.696,-1.689l-0,-134.378c-0,-0.662 0.232,-1.226 0.696,-1.689c0.463,-0.464 1.027,-0.696 1.689,-0.696l23.258,-0c0.662,-0 1.226,0.232 1.69,0.696c0.463,0.463 0.695,1.027 0.695,1.689l0,40.751c0,0.397 0.166,0.596 0.497,0.596c0.332,0 0.762,-0.265 1.292,-0.795c4.241,-5.036 10.138,-7.554 17.692,-7.554Z" style="fill:#2e2d33;fill-rule:nonzero;"/><path d="M843.891,140.734c-11.794,0 -21.038,-2.982 -27.73,-8.945c-6.692,-5.964 -10.039,-14.114 -10.039,-24.45l0,-38.564c0,-10.072 3.38,-18.156 10.138,-24.252c6.759,-6.096 15.969,-9.144 27.631,-9.144c11.795,0 21.071,3.048 27.83,9.144c6.758,6.096 10.138,14.18 10.138,24.252l-0,38.564c-0,10.336 -3.347,18.486 -10.039,24.45c-6.692,5.963 -16.002,8.945 -27.929,8.945Zm0,-24.251c2.916,-0 5.301,-1.06 7.156,-3.181c1.856,-2.12 2.783,-4.837 2.783,-8.15l0,-34.389c0,-3.313 -0.927,-6.03 -2.783,-8.15c-1.855,-2.121 -4.24,-3.181 -7.156,-3.181c-2.915,-0 -5.268,1.06 -7.057,3.181c-1.789,2.12 -2.683,4.837 -2.683,8.15l-0,34.389c-0,3.313 0.894,6.03 2.683,8.15c1.789,2.121 4.142,3.181 7.057,3.181Z" style="fill:#2e2d33;fill-rule:nonzero;"/></g><g><path d="M321.882,300.004c-11.66,0 -20.836,-2.981 -27.527,-8.944c-6.692,-5.962 -10.038,-14.111 -10.038,-24.447l0,-38.558c0,-10.07 3.346,-18.153 10.038,-24.248c6.691,-6.095 15.867,-9.143 27.527,-9.143c11.66,0 20.836,2.981 27.528,8.944c6.691,5.963 10.037,13.714 10.037,23.254l-0,3.578c-0,0.662 -0.232,1.226 -0.696,1.689c-0.464,0.464 -1.027,0.696 -1.689,0.696l-23.255,0.994c-1.59,-0 -2.385,-0.795 -2.385,-2.385l0,-2.385c0,-2.915 -0.894,-5.367 -2.683,-7.354c-1.789,-1.988 -4.074,-2.982 -6.857,-2.982c-2.915,0 -5.234,1.06 -6.956,3.18c-1.723,2.121 -2.584,4.903 -2.584,8.348l-0,34.186c-0,3.445 0.861,6.228 2.584,8.348c1.722,2.12 4.041,3.18 6.956,3.18c2.783,-0 5.068,-1.027 6.857,-3.081c1.789,-2.054 2.683,-4.472 2.683,-7.254l0,-2.584c0,-0.663 0.232,-1.226 0.696,-1.69c0.464,-0.463 1.027,-0.695 1.689,-0.695l23.255,0.198c0.662,0 1.225,0.232 1.689,0.696c0.464,0.464 0.696,1.027 0.696,1.689l-0,4.572c-0,9.805 -3.346,17.623 -10.037,23.453c-6.692,5.83 -15.868,8.745 -27.528,8.745Z" style="fill:#2e2d33;fill-rule:nonzero;"/><path d="M408.34,300.004c-11.792,0 -21.034,-2.981 -27.726,-8.944c-6.691,-5.962 -10.037,-14.111 -10.037,-24.447l0,-38.558c0,-10.07 3.379,-18.153 10.137,-24.248c6.757,-6.095 15.966,-9.143 27.626,-9.143c11.793,0 21.068,3.048 27.826,9.143c6.758,6.095 10.137,14.178 10.137,24.248l-0,38.558c-0,10.336 -3.346,18.485 -10.037,24.447c-6.692,5.963 -16,8.944 -27.926,8.944Zm0,-24.248c2.916,0 5.301,-1.06 7.156,-3.18c1.855,-2.12 2.782,-4.836 2.782,-8.149l0,-34.385c0,-3.312 -0.927,-6.028 -2.782,-8.149c-1.855,-2.12 -4.24,-3.18 -7.156,-3.18c-2.915,0 -5.267,1.06 -7.055,3.18c-1.789,2.121 -2.684,4.837 -2.684,8.149l0,34.385c0,3.313 0.895,6.029 2.684,8.149c1.788,2.12 4.14,3.18 7.055,3.18Z" style="fill:#2e2d33;fill-rule:nonzero;"/><path d="M552.636,194.664c9.011,0 15.768,3.048 20.273,9.143c4.506,6.095 6.758,14.641 6.758,25.639l0,66.583c0,0.663 -0.232,1.226 -0.696,1.689c-0.463,0.464 -1.026,0.696 -1.689,0.696l-23.254,0c-0.663,0 -1.226,-0.232 -1.69,-0.696c-0.463,-0.463 -0.695,-1.026 -0.695,-1.689l-0,-64.794c-0,-3.975 -0.795,-7.056 -2.385,-9.242c-1.59,-2.186 -3.71,-3.28 -6.361,-3.28c-2.915,0 -5.2,1.094 -6.857,3.28c-1.656,2.186 -2.484,5.267 -2.484,9.242l-0,64.794c-0,0.663 -0.232,1.226 -0.696,1.689c-0.463,0.464 -1.027,0.696 -1.689,0.696l-23.056,0c-0.662,0 -1.225,-0.232 -1.689,-0.696c-0.464,-0.463 -0.696,-1.026 -0.696,-1.689l0,-64.794c0,-3.975 -0.795,-7.056 -2.385,-9.242c-1.59,-2.186 -3.71,-3.28 -6.36,-3.28c-2.915,0 -5.201,1.094 -6.857,3.28c-1.656,2.186 -2.484,5.267 -2.484,9.242l-0,64.794c-0,0.663 -0.232,1.226 -0.696,1.689c-0.464,0.464 -1.027,0.696 -1.689,0.696l-23.255,0c-0.662,0 -1.225,-0.232 -1.689,-0.696c-0.464,-0.463 -0.696,-1.026 -0.696,-1.689l0,-97.39c0,-0.662 0.232,-1.225 0.696,-1.689c0.464,-0.464 1.027,-0.696 1.689,-0.696l23.255,0c0.662,0 1.225,0.232 1.689,0.696c0.464,0.464 0.696,1.027 0.696,1.689l-0,2.584c-0,0.397 0.132,0.663 0.397,0.795c0.265,0.133 0.53,0.066 0.795,-0.199c2.65,-2.65 5.565,-4.505 8.745,-5.565c3.18,-1.06 6.228,-1.59 9.143,-1.59c10.335,0 17.756,4.108 22.261,12.323l0.397,0.199c0.398,-0 0.861,-0.398 1.391,-1.193c2.783,-4.24 6.129,-7.188 10.038,-8.844c3.908,-1.657 7.85,-2.485 11.825,-2.485Z" style="fill:#2e2d33;fill-rule:nonzero;"/></g><g><path d="M675.602,213.546c0,0.662 -0.232,1.225 -0.695,1.689c-0.464,0.464 -1.027,0.696 -1.69,0.696l-11.13,-0c-0.663,-0 -0.994,0.331 -0.994,0.994l0,47.303c0,3.843 0.729,6.493 2.186,7.95c1.458,1.458 3.644,2.12 6.559,1.988l1.392,-0c0.662,-0 1.225,0.232 1.689,0.696c0.464,0.463 0.696,1.027 0.696,1.689l-0,19.478c-0,0.663 -0.232,1.226 -0.696,1.689c-0.464,0.464 -1.027,0.696 -1.689,0.696l-7.951,0c-9.672,0 -16.96,-1.623 -21.863,-4.869c-4.902,-3.247 -7.354,-9.441 -7.354,-18.584l0,-58.036c0,-0.663 -0.331,-0.994 -0.993,-0.994l-6.559,-0c-0.663,-0 -1.226,-0.232 -1.69,-0.696c-0.463,-0.464 -0.695,-1.027 -0.695,-1.689l-0,-14.907c-0,-0.662 0.232,-1.225 0.695,-1.689c0.464,-0.464 1.027,-0.696 1.69,-0.696l6.559,0c0.662,0 0.993,-0.331 0.993,-0.994l0,-22.061c0,-0.663 0.232,-1.226 0.696,-1.69c0.464,-0.464 1.027,-0.695 1.689,-0.695l22.261,-0c0.663,-0 1.226,0.231 1.689,0.695c0.464,0.464 0.696,1.027 0.696,1.69l0,22.061c0,0.663 0.331,0.994 0.994,0.994l11.13,0c0.663,0 1.226,0.232 1.69,0.696c0.463,0.464 0.695,1.027 0.695,1.689l0,14.907Z" style="fill:#2e2d33;fill-rule:nonzero;"/><path d="M701.043,184.726c-4.505,0 -8.249,-1.49 -11.23,-4.472c-2.981,-2.981 -4.472,-6.724 -4.472,-11.229c0,-4.638 1.458,-8.414 4.373,-11.329c2.915,-2.915 6.691,-4.373 11.329,-4.373c4.637,0 8.381,1.458 11.229,4.373c2.849,2.915 4.274,6.691 4.274,11.329c-0,4.505 -1.458,8.248 -4.373,11.229c-2.915,2.982 -6.625,4.472 -11.13,4.472Zm-11.329,113.688c-0.663,0 -1.226,-0.232 -1.69,-0.696c-0.463,-0.463 -0.695,-1.026 -0.695,-1.689l-0,-97.39c-0,-0.662 0.232,-1.225 0.695,-1.689c0.464,-0.464 1.027,-0.696 1.69,-0.696l23.254,0c0.663,0 1.226,0.232 1.689,0.696c0.464,0.464 0.696,1.027 0.696,1.689l0,97.39c0,0.663 -0.232,1.226 -0.696,1.689c-0.463,0.464 -1.026,0.696 -1.689,0.696l-23.254,0Z" style="fill:#2e2d33;fill-rule:nonzero;"/></g><path d="M225.247,93.778c-0,-31.03 -25.193,-56.222 -56.222,-56.222l-112.444,-0c-31.03,-0 -56.222,25.192 -56.222,56.222l-0,112.444c-0,31.03 25.192,56.222 56.222,56.222l112.444,0c31.029,0 56.222,-25.192 56.222,-56.222l-0,-112.444Zm-95.91,27.582c-2.161,-4.068 -3.385,-8.708 -3.385,-13.631c0,-16.072 13.049,-29.121 29.121,-29.121c16.073,0 29.121,13.049 29.121,29.121c0,16.073 -13.048,29.121 -29.121,29.121c-4.923,0 -9.562,-1.224 -13.63,-3.385l-45.175,45.175c2.161,4.068 3.385,8.708 3.385,13.631c0,16.072 -13.049,29.121 -29.121,29.121c-16.072,-0 -29.121,-13.049 -29.121,-29.121c-0,-16.073 13.049,-29.121 29.121,-29.121c4.923,-0 9.562,1.224 13.631,3.385l45.174,-45.175Zm25.736,41.79c16.073,-0 29.121,13.048 29.121,29.121c0,16.072 -13.048,29.121 -29.121,29.121c-16.072,-0 -29.121,-13.049 -29.121,-29.121c0,-16.073 13.049,-29.121 29.121,-29.121Zm0,15.971c7.258,0 13.15,5.892 13.15,13.15c-0,7.257 -5.892,13.149 -13.15,13.149c-7.257,0 -13.149,-5.892 -13.149,-13.149c-0,-7.258 5.892,-13.15 13.149,-13.15Zm-84.541,-42.271c-16.072,0 -29.121,-13.048 -29.121,-29.121c-0,-16.072 13.049,-29.121 29.121,-29.121c16.072,0 29.121,13.049 29.121,29.121c0,16.073 -13.049,29.121 -29.121,29.121Zm0,-15.971c-7.257,-0 -13.149,-5.892 -13.149,-13.15c-0,-7.257 5.892,-13.149 13.149,-13.149c7.257,-0 13.15,5.892 13.15,13.149c-0,7.258 -5.893,13.15 -13.15,13.15Zm84.541,-26.299c7.258,-0 13.15,5.892 13.15,13.149c-0,7.258 -5.892,13.15 -13.15,13.15c-7.257,-0 -13.149,-5.892 -13.149,-13.15c-0,-7.257 5.892,-13.149 13.149,-13.149Z" style="fill:#2e2d33;"/></g></svg>