<?xml version="1.0" encoding="UTF-8" standalone="no"?>
<!DOCTYPE svg PUBLIC "-//W3C//DTD SVG 1.1//EN" "http://www.w3.org/Graphics/SVG/1.1/DTD/svg11.dtd">
<svg width="100%" height="100%" viewBox="0 0 300 300" version="1.1" xmlns="http://www.w3.org/2000/svg" xmlns:xlink="http://www.w3.org/1999/xlink" xml:space="preserve" xmlns:serif="http://www.serif.com/" style="fill-rule:evenodd;clip-rule:evenodd;stroke-linejoin:round;stroke-miterlimit:2;">
    <g transform="matrix(1,0,0,1,-2425,-3692)">
        <g id="ti-logo-black" transform="matrix(0.724638,0,0,0.80429,935.87,722.563)">
            <rect x="2055" y="3692" width="414" height="373" style="fill:none;"/>
            <g transform="matrix(5.45035,0,0,4.91058,-5305.01,-17089.6)">
                <path d="M1426.33,4250.99C1426.33,4240.51 1417.82,4232 1407.34,4232L1369.36,4232C1358.88,4232 1350.37,4240.51 1350.37,4250.99L1350.37,4288.97C1350.37,4299.45 1358.88,4307.96 1369.36,4307.96L1407.34,4307.96C1417.82,4307.96 1426.33,4299.45 1426.33,4288.97L1426.33,4250.99ZM1393.94,4260.31C1393.21,4258.93 1392.79,4257.36 1392.79,4255.7C1392.79,4250.27 1397.2,4245.87 1402.63,4245.87C1408.06,4245.87 1412.47,4250.27 1412.47,4255.7C1412.47,4261.13 1408.06,4265.54 1402.63,4265.54C1400.97,4265.54 1399.4,4265.12 1398.03,4264.39L1382.77,4279.65C1383.5,4281.03 1383.91,4282.59 1383.91,4284.26C1383.91,4289.69 1379.5,4294.09 1374.08,4294.09C1368.65,4294.09 1364.24,4289.69 1364.24,4284.26C1364.24,4278.83 1368.65,4274.42 1374.08,4274.42C1375.74,4274.42 1377.31,4274.83 1378.68,4275.56L1393.94,4260.31ZM1402.63,4274.42C1408.06,4274.42 1412.47,4278.83 1412.47,4284.26C1412.47,4289.69 1408.06,4294.09 1402.63,4294.09C1397.2,4294.09 1392.79,4289.69 1392.79,4284.26C1392.79,4278.83 1397.2,4274.42 1402.63,4274.42ZM1402.63,4279.82C1405.08,4279.82 1407.07,4281.81 1407.07,4284.26C1407.07,4286.71 1405.08,4288.7 1402.63,4288.7C1400.18,4288.7 1398.19,4286.71 1398.19,4284.26C1398.19,4281.81 1400.18,4279.82 1402.63,4279.82ZM1374.08,4265.54C1368.65,4265.54 1364.24,4261.13 1364.24,4255.7C1364.24,4250.27 1368.65,4245.87 1374.08,4245.87C1379.5,4245.87 1383.91,4250.27 1383.91,4255.7C1383.91,4261.13 1379.5,4265.54 1374.08,4265.54ZM1374.08,4260.14C1371.62,4260.14 1369.63,4258.15 1369.63,4255.7C1369.63,4253.25 1371.62,4251.26 1374.08,4251.26C1376.53,4251.26 1378.52,4253.25 1378.52,4255.7C1378.52,4258.15 1376.53,4260.14 1374.08,4260.14ZM1402.63,4251.26C1405.08,4251.26 1407.07,4253.25 1407.07,4255.7C1407.07,4258.15 1405.08,4260.14 1402.63,4260.14C1400.18,4260.14 1398.19,4258.15 1398.19,4255.7C1398.19,4253.25 1400.18,4251.26 1402.63,4251.26Z" style="fill:rgb(46,45,51);"/>
            </g>
        </g>
    </g>
</svg>
