<?xml version="1.0" encoding="UTF-8" standalone="no"?><!DOCTYPE svg PUBLIC "-//W3C//DTD SVG 1.1//EN" "http://www.w3.org/Graphics/SVG/1.1/DTD/svg11.dtd"><svg width="100%" height="100%" viewBox="0 0 3675 1250" version="1.1" xmlns="http://www.w3.org/2000/svg" xmlns:xlink="http://www.w3.org/1999/xlink" xml:space="preserve" xmlns:serif="http://www.serif.com/" style="fill-rule:evenodd;clip-rule:evenodd;stroke-linejoin:round;stroke-miterlimit:2;"><rect id="ti-logo-full-white" x="1.494" y="0" width="3672.92" height="1250" style="fill:none;"/><clipPath id="_clip1"><rect x="1.494" y="0" width="3672.92" height="1250"/></clipPath><g clip-path="url(#_clip1)"><g><path d="M1402.49,226.098c-0,2.761 -0.967,5.108 -2.899,7.041c-1.933,1.932 -4.28,2.899 -7.04,2.899l-46.383,-0c-2.761,-0 -4.141,1.38 -4.141,4.141l-0,197.126c-0,16.013 3.037,27.057 9.11,33.131c6.074,6.074 15.185,8.835 27.333,8.282l5.798,0c2.761,0 5.108,0.967 7.04,2.899c1.933,1.933 2.899,4.28 2.899,7.041l0,81.169c0,2.761 -0.966,5.108 -2.899,7.04c-1.932,1.933 -4.279,2.899 -7.04,2.899l-33.131,0c-40.308,0 -70.678,-6.764 -91.108,-20.292c-20.431,-13.528 -30.646,-39.342 -30.646,-77.443l-0,-241.852c-0,-2.761 -1.38,-4.141 -4.141,-4.141l-27.333,-0c-2.761,-0 -5.108,-0.967 -7.04,-2.899c-1.933,-1.933 -2.899,-4.28 -2.899,-7.041l-0,-62.119c-0,-2.761 0.966,-5.108 2.899,-7.04c1.932,-1.933 4.279,-2.899 7.04,-2.899l27.333,-0c2.761,-0 4.141,-1.381 4.141,-4.142l-0,-91.937c-0,-2.761 0.966,-5.107 2.899,-7.04c1.932,-1.933 4.279,-2.899 7.04,-2.899l92.765,0c2.761,0 5.108,0.966 7.041,2.899c1.932,1.933 2.899,4.279 2.899,7.04l-0,91.937c-0,2.761 1.38,4.142 4.141,4.142l46.383,-0c2.76,-0 5.107,0.966 7.04,2.899c1.932,1.932 2.899,4.279 2.899,7.04l-0,62.119Z" style="fill:#fff;fill-rule:nonzero;"/><path d="M1640.2,149.07c14.909,0 26.504,2.761 34.787,8.283c4.417,2.761 6.074,6.902 4.97,12.424l-15.737,96.906c-0.553,6.074 -4.418,8.283 -11.596,6.626c-6.074,-2.208 -13.528,-3.313 -22.363,-3.313c-8.283,0 -15.461,1.105 -21.535,3.313c-12.7,2.209 -22.915,9.801 -30.646,22.778c-7.73,12.976 -11.595,28.022 -11.595,45.14l-0,227.772c-0,2.761 -0.967,5.108 -2.899,7.04c-1.933,1.933 -4.28,2.899 -7.04,2.899l-96.907,0c-2.761,0 -5.108,-0.966 -7.04,-2.899c-1.933,-1.932 -2.899,-4.279 -2.899,-7.04l-0,-405.02c-0,-2.761 0.966,-5.108 2.899,-7.04c1.932,-1.933 4.279,-2.899 7.04,-2.899l96.907,-0c2.76,-0 5.107,0.966 7.04,2.899c1.932,1.932 2.899,4.279 2.899,7.04l-0,32.302c-0,2.209 0.414,3.451 1.242,3.727c0.828,0.276 1.795,-0.414 2.899,-2.07c14.909,-32.579 38.1,-48.868 69.574,-48.868Z" style="fill:#fff;fill-rule:nonzero;"/><path d="M1867.97,147.414c46.935,-0 85.035,12.7 114.3,38.1c29.266,25.4 43.898,58.806 43.898,100.219l0,284.094c0,2.761 -0.966,5.108 -2.899,7.04c-1.932,1.933 -4.279,2.899 -7.04,2.899l-96.907,0c-2.76,0 -5.107,-0.966 -7.04,-2.899c-1.932,-1.932 -2.899,-4.279 -2.899,-7.04l0,-18.222c0,-1.656 -0.552,-2.76 -1.656,-3.313c-1.105,-0.552 -2.209,0 -3.313,1.657c-18.222,23.191 -46.383,35.339 -84.483,36.443c-32.026,0 -59.773,-8.834 -83.24,-26.504c-23.468,-17.669 -35.202,-51.352 -35.202,-101.048c0,-51.352 14.219,-86.691 42.656,-106.017c28.437,-19.327 69.436,-28.99 122.997,-28.99l38.1,0c2.761,0 4.141,-1.38 4.141,-4.141l0,-20.706c0,-14.909 -4.003,-27.195 -12.01,-36.858c-8.006,-9.663 -18.083,-14.495 -30.231,-14.495c-9.387,0 -17.256,2.899 -23.606,8.697c-6.35,5.798 -10.353,13.942 -12.009,24.434c-0.553,6.626 -4.142,9.939 -10.768,9.939l-99.391,-0.828c-6.626,-0 -9.939,-3.313 -9.939,-9.94c2.76,-40.308 18.497,-72.472 47.211,-96.492c28.713,-24.02 65.156,-36.029 109.33,-36.029Zm-8.282,348.698c12.7,-0 24.157,-4.279 34.372,-12.838c10.216,-8.559 15.323,-20.016 15.323,-34.373l0,-38.928c0,-2.761 -1.38,-4.142 -4.141,-4.142l-33.959,0c-14.909,0 -26.918,4.28 -36.029,12.838c-9.111,8.559 -13.667,20.293 -13.667,35.202c0,13.804 3.452,24.295 10.354,31.474c6.902,7.178 16.151,10.767 27.747,10.767Z" style="fill:#fff;fill-rule:nonzero;"/><path d="M2279.62,147.414c37.548,-0 66.123,12.009 85.726,36.029c19.602,24.02 29.403,58.392 29.403,103.119l-0,160.682c-0,43.622 -9.663,77.719 -28.989,102.291c-19.326,24.572 -48.039,36.857 -86.14,36.857c-30.921,0 -55.769,-10.491 -74.543,-31.473c-1.104,-1.105 -2.209,-1.519 -3.313,-1.243c-1.105,0.276 -1.657,1.243 -1.657,2.899l0,13.252c0,2.761 -0.966,5.108 -2.899,7.04c-1.932,1.933 -4.279,2.899 -7.04,2.899l-96.907,0c-2.76,0 -5.107,-0.966 -7.04,-2.899c-1.932,-1.932 -2.899,-4.279 -2.899,-7.04l0,-559.905c0,-2.761 0.967,-5.108 2.899,-7.04c1.933,-1.933 4.28,-2.899 7.04,-2.899l96.907,-0c2.761,-0 5.108,0.966 7.04,2.899c1.933,1.932 2.899,4.279 2.899,7.04l0,168.137c0,1.105 0.552,1.657 1.657,1.657c2.209,-0 4.417,-1.381 6.626,-4.142c18.774,-18.774 42.517,-28.16 71.23,-28.16Zm-1.656,147.43c-0,-13.804 -3.589,-25.124 -10.767,-33.959c-7.179,-8.834 -16.566,-13.252 -28.161,-13.252c-9.94,0 -18.498,3.313 -25.677,9.939c-7.178,6.626 -11.595,15.461 -13.252,26.505l0,165.652c1.657,11.044 6.074,19.879 13.252,26.505c7.179,6.626 15.737,9.939 25.677,9.939c11.595,-0 20.982,-4.418 28.161,-13.252c7.178,-8.835 10.767,-20.155 10.767,-33.959l-0,-144.118Z" style="fill:#fff;fill-rule:nonzero;"/><path d="M2605.95,147.414c46.935,-0 85.035,12.7 114.3,38.1c29.265,25.4 43.898,58.806 43.898,100.219l-0,284.094c-0,2.761 -0.966,5.108 -2.899,7.04c-1.933,1.933 -4.279,2.899 -7.04,2.899l-96.907,0c-2.761,0 -5.108,-0.966 -7.04,-2.899c-1.933,-1.932 -2.899,-4.279 -2.899,-7.04l-0,-18.222c-0,-1.656 -0.552,-2.76 -1.657,-3.313c-1.104,-0.552 -2.208,0 -3.313,1.657c-18.221,23.191 -46.382,35.339 -84.482,36.443c-32.027,0 -59.773,-8.834 -83.241,-26.504c-23.467,-17.669 -35.201,-51.352 -35.201,-101.048c0,-51.352 14.219,-86.691 42.656,-106.017c28.437,-19.327 69.436,-28.99 122.997,-28.99l38.1,0c2.76,0 4.141,-1.38 4.141,-4.141l-0,-20.706c-0,-14.909 -4.003,-27.195 -12.01,-36.858c-8.006,-9.663 -18.084,-14.495 -30.231,-14.495c-9.387,0 -17.256,2.899 -23.606,8.697c-6.35,5.798 -10.353,13.942 -12.01,24.434c-0.552,6.626 -4.141,9.939 -10.767,9.939l-99.392,-0.828c-6.626,-0 -9.939,-3.313 -9.939,-9.94c2.761,-40.308 18.498,-72.472 47.211,-96.492c28.713,-24.02 65.157,-36.029 109.331,-36.029Zm-8.283,348.698c12.7,-0 24.158,-4.279 34.373,-12.838c10.215,-8.559 15.323,-20.016 15.323,-34.373l-0,-38.928c-0,-2.761 -1.381,-4.142 -4.141,-4.142l-33.959,0c-14.909,0 -26.919,4.28 -36.03,12.838c-9.11,8.559 -13.666,20.293 -13.666,35.202c0,13.804 3.451,24.295 10.353,31.474c6.903,7.178 16.151,10.767 27.747,10.767Z" style="fill:#fff;fill-rule:nonzero;"/><path d="M2827.93,579.766c-2.761,0 -5.108,-0.966 -7.04,-2.899c-1.933,-1.932 -2.899,-4.279 -2.899,-7.04l-0,-559.905c-0,-2.761 0.966,-5.108 2.899,-7.04c1.932,-1.933 4.279,-2.899 7.04,-2.899l96.907,-0c2.761,-0 5.107,0.966 7.04,2.899c1.933,1.932 2.899,4.279 2.899,7.04l-0,559.905c-0,2.761 -0.966,5.108 -2.899,7.04c-1.933,1.933 -4.279,2.899 -7.04,2.899l-96.907,0Z" style="fill:#fff;fill-rule:nonzero;"/><path d="M3192.36,147.414c37.548,-0 65.709,12.423 84.483,37.271c18.774,24.848 28.161,59.635 28.161,104.361l0,280.781c0,2.761 -0.966,5.108 -2.899,7.04c-1.932,1.933 -4.279,2.899 -7.04,2.899l-96.907,0c-2.761,0 -5.107,-0.966 -7.04,-2.899c-1.933,-1.932 -2.899,-4.279 -2.899,-7.04l0,-271.67c0,-16.013 -3.175,-28.437 -9.525,-37.272c-6.35,-8.834 -15.599,-13.252 -27.747,-13.252c-12.7,0 -22.501,4.556 -29.403,13.667c-6.902,9.11 -10.353,21.949 -10.353,38.514l-0,270.013c-0,2.761 -0.967,5.108 -2.899,7.04c-1.933,1.933 -4.28,2.899 -7.04,2.899l-96.907,0c-2.761,0 -5.108,-0.966 -7.04,-2.899c-1.933,-1.932 -2.899,-4.279 -2.899,-7.04l-0,-559.905c-0,-2.761 0.966,-5.108 2.899,-7.04c1.932,-1.933 4.279,-2.899 7.04,-2.899l96.907,-0c2.76,-0 5.107,0.966 7.04,2.899c1.932,1.932 2.899,4.279 2.899,7.04l-0,169.794c-0,1.656 0.69,2.485 2.07,2.485c1.381,-0 3.175,-1.105 5.384,-3.314c17.67,-20.982 42.241,-31.473 73.715,-31.473Z" style="fill:#fff;fill-rule:nonzero;"/><path d="M3516.21,586.392c-49.144,0 -87.658,-12.423 -115.543,-37.271c-27.884,-24.848 -41.827,-58.807 -41.827,-101.877l0,-160.682c0,-41.966 14.081,-75.648 42.242,-101.048c28.16,-25.4 66.537,-38.1 115.128,-38.1c49.144,-0 87.796,12.7 115.957,38.1c28.161,25.4 42.241,59.082 42.241,101.048l0,160.682c0,43.07 -13.942,77.029 -41.827,101.877c-27.885,24.848 -66.675,37.271 -116.371,37.271Zm-0,-101.047c12.148,-0 22.087,-4.418 29.817,-13.253c7.731,-8.834 11.596,-20.154 11.596,-33.958l0,-143.29c0,-13.804 -3.865,-25.124 -11.596,-33.959c-7.73,-8.834 -17.669,-13.252 -29.817,-13.252c-12.148,0 -21.949,4.418 -29.403,13.252c-7.455,8.835 -11.182,20.155 -11.182,33.959l0,143.29c0,13.804 3.727,25.124 11.182,33.958c7.454,8.835 17.255,13.253 29.403,13.253Z" style="fill:#fff;fill-rule:nonzero;"/></g><g><path d="M1341.18,1250.02c-48.585,0 -86.818,-12.422 -114.698,-37.266c-27.881,-24.845 -41.822,-58.799 -41.822,-101.862l0,-160.66c0,-41.96 13.941,-75.638 41.822,-101.034c27.88,-25.396 66.113,-38.095 114.698,-38.095c48.584,0 86.817,12.423 114.698,37.267c27.881,24.844 41.821,57.142 41.821,96.893l-0,14.906c-0,2.761 -0.966,5.107 -2.899,7.04c-1.932,1.932 -4.278,2.898 -7.039,2.898l-96.893,4.141c-6.625,-0 -9.937,-3.313 -9.937,-9.938l-0,-9.938c-0,-12.146 -3.727,-22.359 -11.18,-30.641c-7.454,-8.281 -16.977,-12.422 -28.571,-12.422c-12.147,-0 -21.808,4.417 -28.985,13.25c-7.178,8.834 -10.766,20.428 -10.766,34.782l-0,142.441c-0,14.355 3.588,25.949 10.766,34.782c7.177,8.834 16.838,13.251 28.985,13.251c11.594,-0 21.117,-4.279 28.571,-12.837c7.453,-8.557 11.18,-18.633 11.18,-30.227l-0,-10.766c-0,-2.76 0.966,-5.107 2.898,-7.039c1.932,-1.932 4.279,-2.899 7.039,-2.899l96.893,0.829c2.761,-0 5.107,0.966 7.039,2.898c1.933,1.932 2.899,4.279 2.899,7.039l-0,19.048c-0,40.855 -13.94,73.429 -41.821,97.721c-27.881,24.292 -66.114,36.438 -114.698,36.438Z" style="fill:#fff;fill-rule:nonzero;"/><path d="M1701.42,1250.02c-49.137,0 -87.646,-12.422 -115.527,-37.266c-27.88,-24.845 -41.821,-58.799 -41.821,-101.862l0,-160.66c0,-41.96 14.079,-75.638 42.235,-101.034c28.157,-25.396 66.528,-38.095 115.113,-38.095c49.136,0 87.783,12.699 115.94,38.095c28.157,25.396 42.235,59.074 42.235,101.034l0,160.66c0,43.063 -13.94,77.017 -41.821,101.862c-27.881,24.844 -66.666,37.266 -116.354,37.266Zm-0,-101.034c12.146,0 22.084,-4.416 29.813,-13.25c7.729,-8.833 11.594,-20.151 11.594,-33.954l-0,-143.269c-0,-13.802 -3.865,-25.12 -11.594,-33.954c-7.729,-8.833 -17.667,-13.25 -29.813,-13.25c-12.146,-0 -21.946,4.417 -29.4,13.25c-7.453,8.834 -11.179,20.152 -11.179,33.954l-0,143.269c-0,13.803 3.726,25.121 11.179,33.954c7.454,8.834 17.254,13.25 29.4,13.25Z" style="fill:#fff;fill-rule:nonzero;"/><path d="M2302.65,811.1c37.542,0 65.699,12.699 84.471,38.095c18.771,25.396 28.157,61.007 28.157,106.831l-0,277.428c-0,2.761 -0.967,5.107 -2.899,7.039c-1.932,1.933 -4.279,2.899 -7.039,2.899l-96.893,0c-2.761,0 -5.107,-0.966 -7.039,-2.899c-1.933,-1.932 -2.899,-4.278 -2.899,-7.039l0,-269.975c0,-16.563 -3.312,-29.399 -9.938,-38.509c-6.625,-9.109 -15.458,-13.664 -26.5,-13.664c-12.146,-0 -21.67,4.555 -28.571,13.664c-6.901,9.11 -10.352,21.946 -10.352,38.509l-0,269.975c-0,2.761 -0.966,5.107 -2.899,7.039c-1.932,1.933 -4.278,2.899 -7.039,2.899l-96.065,0c-2.76,0 -5.106,-0.966 -7.039,-2.899c-1.932,-1.932 -2.898,-4.278 -2.898,-7.039l-0,-269.975c-0,-16.563 -3.313,-29.399 -9.938,-38.509c-6.625,-9.109 -15.459,-13.664 -26.501,-13.664c-12.146,-0 -21.669,4.555 -28.571,13.664c-6.901,9.11 -10.352,21.946 -10.352,38.509l0,269.975c0,2.761 -0.966,5.107 -2.898,7.039c-1.932,1.933 -4.279,2.899 -7.039,2.899l-96.893,0c-2.761,0 -5.107,-0.966 -7.039,-2.899c-1.933,-1.932 -2.899,-4.278 -2.899,-7.039l0,-405.791c0,-2.76 0.966,-5.107 2.899,-7.039c1.932,-1.932 4.278,-2.899 7.039,-2.899l96.893,0c2.76,0 5.107,0.967 7.039,2.899c1.932,1.932 2.898,4.279 2.898,7.039l0,10.766c0,1.656 0.553,2.761 1.657,3.313c1.104,0.552 2.208,0.276 3.312,-0.828c11.042,-11.042 23.188,-18.772 36.439,-23.189c13.25,-4.416 25.948,-6.625 38.094,-6.625c43.064,0 73.981,17.115 92.753,51.345l1.656,0.828c1.656,0 3.589,-1.656 5.797,-4.968c11.594,-17.667 25.534,-29.952 41.821,-36.853c16.287,-6.901 32.712,-10.352 49.275,-10.352Z" style="fill:#fff;fill-rule:nonzero;"/></g><g><path d="M2815.01,889.774c-0,2.761 -0.966,5.107 -2.899,7.039c-1.932,1.933 -4.278,2.899 -7.039,2.899l-46.376,-0c-2.76,-0 -4.141,1.38 -4.141,4.141l0,197.098c0,16.011 3.037,27.053 9.11,33.126c6.073,6.073 15.183,8.833 27.329,8.281l5.797,0c2.76,0 5.107,0.966 7.039,2.899c1.932,1.932 2.899,4.279 2.899,7.039l-0,81.158c-0,2.761 -0.967,5.107 -2.899,7.039c-1.932,1.933 -4.279,2.899 -7.039,2.899l-33.126,0c-40.303,0 -70.668,-6.763 -91.096,-20.29c-20.428,-13.526 -30.641,-39.336 -30.641,-77.431l-0,-241.818c-0,-2.761 -1.381,-4.141 -4.141,-4.141l-27.329,-0c-2.76,-0 -5.107,-0.966 -7.039,-2.899c-1.932,-1.932 -2.899,-4.278 -2.899,-7.039l0,-62.111c0,-2.76 0.967,-5.107 2.899,-7.039c1.932,-1.932 4.279,-2.899 7.039,-2.899l27.329,0c2.76,0 4.141,-1.38 4.141,-4.14l-0,-91.924c-0,-2.761 0.966,-5.107 2.898,-7.04c1.933,-1.932 4.279,-2.898 7.039,-2.898l92.753,-0c2.76,-0 5.107,0.966 7.039,2.898c1.932,1.933 2.898,4.279 2.898,7.04l0,91.924c0,2.76 1.381,4.14 4.141,4.14l46.376,0c2.761,0 5.107,0.967 7.039,2.899c1.933,1.932 2.899,4.279 2.899,7.039l-0,62.111Z" style="fill:#fff;fill-rule:nonzero;"/><path d="M2921.01,769.693c-18.772,0 -34.368,-6.211 -46.791,-18.633c-12.422,-12.422 -18.633,-28.019 -18.633,-46.79c0,-19.324 6.073,-35.059 18.219,-47.205c12.146,-12.146 27.881,-18.219 47.205,-18.219c19.323,0 34.92,6.073 46.79,18.219c11.87,12.146 17.805,27.881 17.805,47.205c-0,18.771 -6.073,34.368 -18.219,46.79c-12.146,12.422 -27.605,18.633 -46.376,18.633Zm-47.205,473.699c-2.76,0 -5.107,-0.966 -7.039,-2.899c-1.932,-1.932 -2.898,-4.278 -2.898,-7.039l-0,-405.791c-0,-2.76 0.966,-5.107 2.898,-7.039c1.932,-1.932 4.279,-2.899 7.039,-2.899l96.893,0c2.761,0 5.107,0.967 7.039,2.899c1.933,1.932 2.899,4.279 2.899,7.039l-0,405.791c-0,2.761 -0.966,5.107 -2.899,7.039c-1.932,1.933 -4.278,2.899 -7.039,2.899l-96.893,0Z" style="fill:#fff;fill-rule:nonzero;"/></g><path d="M938.528,390.742c0,-129.291 -104.968,-234.259 -234.258,-234.259l-468.517,0c-129.291,0 -234.259,104.968 -234.259,234.259l0,468.516c0,129.291 104.968,234.259 234.259,234.259l468.517,-0c129.29,-0 234.258,-104.968 234.258,-234.259l0,-468.516Zm-399.622,114.925c-9.004,-16.952 -14.105,-36.282 -14.105,-56.795c-0,-66.968 54.37,-121.338 121.338,-121.338c66.968,0 121.338,54.37 121.338,121.338c-0,66.969 -54.37,121.338 -121.338,121.338c-20.513,0 -39.843,-5.101 -56.795,-14.105l-188.227,188.228c9.004,16.952 14.105,36.282 14.105,56.795c-0,66.968 -54.37,121.338 -121.338,121.338c-66.969,-0 -121.338,-54.37 -121.338,-121.338c-0,-66.969 54.369,-121.338 121.338,-121.338c20.512,-0 39.842,5.101 56.794,14.105l188.228,-188.228Zm107.233,174.123c66.968,-0 121.338,54.369 121.338,121.338c-0,66.968 -54.37,121.338 -121.338,121.338c-66.968,-0 -121.338,-54.37 -121.338,-121.338c-0,-66.969 54.37,-121.338 121.338,-121.338Zm-0,66.548c30.239,-0 54.789,24.55 54.789,54.79c0,30.239 -24.55,54.789 -54.789,54.789c-30.239,0 -54.79,-24.55 -54.79,-54.789c0,-30.24 24.551,-54.79 54.79,-54.79Zm-352.255,-176.128c-66.969,0 -121.338,-54.369 -121.338,-121.338c-0,-66.968 54.369,-121.338 121.338,-121.338c66.968,0 121.338,54.37 121.338,121.338c-0,66.969 -54.37,121.338 -121.338,121.338Zm-0,-66.548c-30.24,0 -54.79,-24.55 -54.79,-54.79c0,-30.239 24.55,-54.789 54.79,-54.789c30.239,-0 54.789,24.55 54.789,54.789c0,30.24 -24.55,54.79 -54.789,54.79Zm352.255,-109.579c30.239,-0 54.789,24.55 54.789,54.789c0,30.24 -24.55,54.79 -54.789,54.79c-30.239,0 -54.79,-24.55 -54.79,-54.79c0,-30.239 24.551,-54.789 54.79,-54.789Z" style="fill:#fff;"/></g></svg>